<svg id="Capa_1" enable-background="new 0 0 512 512" height="512" viewBox="0 0 512 512" width="512" xmlns="http://www.w3.org/2000/svg"><g><g><path d="m184.755 372.407h142.485v34.516h-142.485z" fill="#edebed"/><path d="m354.5 392.5c44.183 0 80 35.817 80 80v12c0 11.046-8.954 20-20 20h-317c-11.046 0-20-8.954-20-20v-12c0-44.183 35.817-80 80-80z" fill="#cdf2f9"/><path d="m434.5 472.5v12c0 11.05-8.95 20-20 20h-30c11.05 0 20-8.95 20-20v-12c0-44.18-35.82-80-80-80h30c44.18 0 80 35.82 80 80z" fill="#a4e8f9"/><path d="m212.5 432.186-27.745-39.686h27.745v-60.314h87v60.314h21.245l-21.245 39.686z" fill="#ecbd83"/><path d="m214.51 504.5h-117.01c-11.05 0-20-8.95-20-20v-12c0-23.86 10.45-45.29 27.02-59.93z" fill="#c3aff0"/><path d="m434.5 472.5v12c0 11.05-8.95 20-20 20h-117l109.99-91.93c16.56 14.65 27.01 36.07 27.01 59.93z" fill="#c3aff0"/><path d="m434.5 472.5v12c0 11.05-8.95 20-20 20h-30c11.05 0 20-8.95 20-20v-12c0-16.92-5.26-32.62-14.23-45.54l17.22-14.39c16.56 14.65 27.01 36.07 27.01 59.93z" fill="#a69ded"/><path d="m342.104 413.458-48.261 40.496c-6.346 5.325-15.807 4.497-21.132-1.849l-16.712-19.917 71.242-59.779 16.712 19.917c5.325 6.345 4.497 15.807-1.849 21.132z" fill="#fff"/><path d="m169.891 413.456 48.261 40.496c6.346 5.325 15.807 4.497 21.132-1.849l16.712-19.917-71.242-59.779-16.712 19.917c-5.325 6.346-4.497 15.807 1.849 21.132z" fill="#fff"/><path d="m363.5 198.5h26.5c16.845 0 30.5 13.655 30.5 30.5 0 16.845-13.655 30.5-30.5 30.5h-26.5z" fill="#ecbd83"/><path d="m148.5 259.5h-26.5c-16.845 0-30.5-13.655-30.5-30.5 0-16.845 13.655-30.5 30.5-30.5h26.5z" fill="#ecbd83"/><path d="m373.5 138.5v101.5c0 64.893-52.607 117.5-117.5 117.5-64.893 0-117.5-52.607-117.5-117.5v-101.5z" fill="#f6d190"/><path d="m373.5 138.5v101.5c0 64.89-52.61 117.5-117.5 117.5-5.08 0-10.09-.32-15-.95 57.81-7.37 102.5-56.74 102.5-116.55v-101.5z" fill="#ecbd83"/><path d="m403.5 139.29v62.36c-4.07-2.02-8.65-3.15-13.5-3.15h-16.5v30.5h-15c-8.28 0-15-6.72-15-15v-55.5l30-9.6z" fill="#bc845e"/><path d="m433.5 70.5v8c0 39.19-25.04 72.53-60 84.87-9.38 3.33-19.48 5.13-30 5.13h-160c-8.28 0-15 6.72-15 15v30.5c0 8.28-6.72 15-15 15h-15v-30.5h-16.5c-4.85 0-9.43 1.13-13.5 3.15v-74.15c0-19.33 15.67-35 35-35h17c4.42 0 8-3.58 8-8 0-9.66 3.92-18.42 10.25-24.75s15.09-10.25 24.75-10.25h125c19.33 0 35-15.67 35-35 0-1.94.78-3.68 2.05-4.95s3.01-2.05 4.95-2.05c17.4 0 33.14 7.05 44.55 18.45 11.4 11.41 18.45 27.15 18.45 44.55z" fill="#d19a6e"/><path d="m433.5 70.5v8c0 39.19-25.04 72.53-60 84.87-9.38 3.33-19.48 5.13-30 5.13h-30c10.52 0 20.62-1.8 30-5.13 34.96-12.34 60-45.68 60-84.87v-8c0-17.4-7.05-33.14-18.45-44.55-5.97-5.97-13.13-10.74-21.09-13.93.35-.94.89-1.77 1.59-2.47 1.27-1.27 3.01-2.05 4.95-2.05 17.4 0 33.14 7.05 44.55 18.45 11.4 11.41 18.45 27.15 18.45 44.55z" fill="#bc845e"/></g><g><path d="m354.5 385h-6.904l-14.564-17.356c-1.409-1.712-3.575-2.734-5.792-2.736h-20.24v-10.794c35.619-15.982 62.445-48.164 71.054-87.114h11.946c20.953 0 38-17.047 38-38 0-13.194-6.762-24.834-17-31.65v-48.057c0-.162-.014-.321-.024-.481 18.494-17.755 30.024-42.711 30.024-70.312v-8c0-38.874-31.626-70.5-70.5-70.5-7.995 0-14.5 6.505-14.5 14.5 0 15.164-12.336 27.5-27.5 27.5h-90c-4.142 0-7.5 3.358-7.5 7.5s3.358 7.5 7.5 7.5h90c23.267 0 42.228-18.793 42.497-41.998 30.375.269 55.003 25.061 55.003 55.498v8c0 45.491-37.009 82.5-82.5 82.5h-160c-12.406 0-22.499 10.093-22.5 22.5v30.5c0 4.135-3.364 7.5-7.5 7.5h-7.5v-23c0-4.142-3.358-7.5-7.5-7.5h-16.5c-2.042 0-4.045.167-6 .478v-63.978c0-15.164 12.336-27.5 27.5-27.5h17c8.547 0 15.5-6.953 15.5-15.5 0-15.164 12.336-27.5 27.5-27.5 4.142 0 7.5-3.358 7.5-7.5s-3.358-7.5-7.5-7.5c-23.435 0-42.5 19.065-42.5 42.5 0 .276-.224.5-.5.5h-17c-23.435 0-42.5 19.065-42.5 42.5v68.57c0 .414.042.817.107 1.212-10.297 6.805-17.107 18.479-17.107 31.718 0 20.953 17.047 38 38 38h11.946c8.61 38.949 35.435 71.132 71.054 87.114v10.793h-20.245c-2.192 0-4.335 1.002-5.746 2.679l-14.612 17.414h-6.897c-48.248 0-87.5 39.252-87.5 87.5v12c0 15.164 12.336 27.5 27.5 27.5h262.5c4.142 0 7.5-3.358 7.5-7.5s-3.358-7.5-7.5-7.5h-41.832l88.924-74.324c12.324 13.001 19.908 30.538 19.908 49.824v12c0 6.893-5.607 12.5-12.5 12.5h-19.5c-4.142 0-7.5 3.358-7.5 7.5s3.358 7.5 7.5 7.5h19.5c15.164 0 27.5-12.336 27.5-27.5v-12c0-48.248-39.252-87.5-87.5-87.5zm-28.184-2.025 11.891 14.171c1.288 1.535 1.901 3.479 1.726 5.475-.174 1.996-1.116 3.804-2.65 5.091l-48.261 40.496c-3.169 2.658-7.908 2.243-10.566-.924l-11.891-14.172zm63.684-130.975h-9.579c.378-3.95.579-7.952.579-12v-3.5h9.5c4.142 0 7.5-3.358 7.5-7.5s-3.358-7.5-7.5-7.5h-9.5v-15.5h9c12.682 0 23 10.318 23 23s-10.318 23-23 23zm6-60.522c-1.955-.312-3.958-.478-6-.478h-16.5c-4.142 0-7.5 3.358-7.5 7.5v23h-7.5c-4.135 0-7.5-3.364-7.5-7.5v-38.286c16.475-1.259 31.817-6.631 45-15.088zm-274 60.522c-12.682 0-23-10.318-23-23s10.318-23 23-23h9v15.5h-9.5c-4.142 0-7.5 3.358-7.5 7.5s3.358 7.5 7.5 7.5h9.5v3.5c0 4.048.201 8.05.579 12zm24-12v-3.5h7.5c12.407 0 22.5-10.093 22.5-22.5v-30.5c0-4.136 3.365-7.5 7.5-7.5h152.5v38c0 12.407 10.093 22.5 22.5 22.5h7.5v3.5c0 60.654-49.346 110-110 110s-110-49.346-110-110zm110 125c12.511 0 24.594-1.856 36-5.292v32.48l-36.001 30.209-35.999-30.207v-32.482c11.406 3.436 23.489 5.292 36 5.292zm-82.212 32.145 11.891-14.172 59.751 50.137-11.891 14.172c-1.288 1.535-3.096 2.476-5.092 2.65-1.996.173-3.94-.438-5.475-1.726l-48.261-40.496c-3.167-2.657-3.582-7.397-.923-10.565zm-88.788 87.355v-12c0-19.286 7.584-36.823 19.908-49.824l88.924 74.324h-96.332c-6.893 0-12.5-5.607-12.5-12.5zm132.222 12.5-100.764-84.22c11.586-7.988 25.595-12.697 40.684-12.771-.607 7.061 2.099 14.301 7.929 19.192l48.261 40.496c4.089 3.432 9.148 5.266 14.424 5.266.664 0 1.331-.029 2-.087 5.987-.523 11.412-3.348 15.275-7.952l10.967-13.07 10.968 13.071c3.863 4.604 9.288 7.428 15.275 7.952.669.059 1.335.087 1.999.087 5.275 0 10.335-1.834 14.424-5.266l48.261-40.495c5.83-4.892 8.536-12.133 7.929-19.194 15.091.073 29.101 4.782 40.689 12.771l-100.764 84.22z"/><path d="m298.321 280.531c-2.667-3.169-7.398-3.577-10.567-.91-18.784 15.805-44.888 15.813-63.481.022-3.158-2.681-7.891-2.294-10.572.862-2.681 3.157-2.295 7.89.862 10.572 12.148 10.317 26.74 15.474 41.362 15.474 14.607 0 29.245-5.151 41.487-15.452 3.169-2.668 3.576-7.399.909-10.568z"/><path d="m313.5 251.5c4.142 0 7.5-3.358 7.5-7.5v-15c0-4.142-3.358-7.5-7.5-7.5s-7.5 3.358-7.5 7.5v15c0 4.142 3.358 7.5 7.5 7.5z"/><path d="m198.5 221.5c-4.142 0-7.5 3.358-7.5 7.5v15c0 4.142 3.358 7.5 7.5 7.5s7.5-3.358 7.5-7.5v-15c0-4.142-3.358-7.5-7.5-7.5z"/></g></g></svg>